<svg xmlns="http://www.w3.org/2000/svg" viewBox="0 0 204.38 55.26"><defs><style>.cls-1{fill:#ff4d4d;}.cls-2{fill:#fff;}</style></defs><title>openbot-id</title><g id="Capa_2" data-name="Capa 2"><g id="img"><path class="cls-1" d="M23.14,5.12a7,7,0,0,1,6.95,6.95V33.7a7,7,0,0,1-6.95,6.95H8A7,7,0,0,1,1,33.7V12.07A7,7,0,0,1,8,5.12ZM10.81,12.4a2.37,2.37,0,0,0-2.39,2.33V31a2.37,2.37,0,0,0,2.39,2.33l11,2A2.37,2.37,0,0,0,24.17,33V12.73a2.37,2.37,0,0,0-2.39-2.33Z"/><path class="cls-1" d="M10.25,20.8a.4.4,0,0,0-.4.39v3.38a.4.4,0,0,0,.4.39h2.07a.4.4,0,0,0,.4-.39V21.19a.4.4,0,0,0-.4-.39Z"/><path class="cls-2" d="M23.72,3.88a7.48,7.48,0,0,1,7.43,7.43V34.45a7.48,7.48,0,0,1-7.43,7.43H7.43A7.48,7.48,0,0,1,0,34.45V11.31A7.48,7.48,0,0,1,7.43,3.88ZM9.37,10.39A2.37,2.37,0,0,0,7,12.72V33a2.37,2.37,0,0,0,2.39,2.33l12.41,0A2.37,2.37,0,0,0,24.17,33V12.73a2.37,2.37,0,0,0-2.39-2.33ZM35.45,14h6.14l.32,1.87a5.61,5.61,0,0,1,4.65-2.52h7.89a6.81,6.81,0,0,1,6.85,6.85V35a6.81,6.81,0,0,1-6.85,6.85H46.76a5.61,5.61,0,0,1-4.65-2.52v15.9H35.45ZM44.7,36.13h8a2,2,0,0,0,2-2V21.59a2,2,0,0,0-2-2.07h-8a2.55,2.55,0,0,0-2.59,2.59V33.61A2.54,2.54,0,0,0,44.7,36.13Zm20.91-15.9a7,7,0,0,1,6.92-6.85H83.7a6.91,6.91,0,0,1,6.92,6.85V29H72v4.91a2.07,2.07,0,0,0,2.07,2h8.4a2.07,2.07,0,0,0,2.07-2V31.54h6.08V35a6.83,6.83,0,0,1-6.92,6.85H72.52A6.87,6.87,0,0,1,65.61,35ZM84.54,25V21.46a2.08,2.08,0,0,0-2.07-2.07h-8.4A2.08,2.08,0,0,0,72,21.46V25ZM94.92,14h6.66V15.9a5.61,5.61,0,0,1,4.65-2.52h7.43a6.85,6.85,0,0,1,6.85,6.85v21h-6.59V21.65a2,2,0,0,0-2-2.07h-7.76a2.55,2.55,0,0,0-2.59,2.59V41.24H94.92ZM124.81,0h6.66V15.9a5.61,5.61,0,0,1,4.65-2.52h7.69a6.91,6.91,0,0,1,6.92,6.85V35a6.83,6.83,0,0,1-6.92,6.85h-7.76a5.7,5.7,0,0,1-4.72-2.39L131,41.24h-6.14Zm9.24,36.13h8a2,2,0,0,0,2-2V21.65a2,2,0,0,0-2-2.07h-8a2.55,2.55,0,0,0-2.59,2.59V33.61A2.54,2.54,0,0,0,134.06,36.13Zm21-15.9a6.86,6.86,0,0,1,6.85-6.85h11.76a6.91,6.91,0,0,1,6.92,6.85V35a6.87,6.87,0,0,1-6.92,6.85H161.88A6.81,6.81,0,0,1,155,35Zm8.4,15.64h8.73a2,2,0,0,0,2-2V21.39a2,2,0,0,0-2-2h-8.73a2,2,0,0,0-2,2V33.87A2,2,0,0,0,163.43,35.87Zm33.19,5.36a6.91,6.91,0,0,1-6.92-6.85v-15h-4.85V14h4.85l.78-7.63h5.88V14h7.3v5.36h-7.3V33a2.07,2.07,0,0,0,2.07,2h5.95v6.21Z"/></g></g></svg>